<?xml version="1.0" ?><svg enable-background="new 0 0 100 100" id="Layer_1" version="1.1" viewBox="0 0 100 100" xml:space="preserve" xmlns="http://www.w3.org/2000/svg" xmlns:xlink="http://www.w3.org/1999/xlink"><path d="M60.53,11.31V4.999c0-0.552-0.448-1-1-1H40.47c-0.552,0-1,0.448-1,1v6.31C20.834,16.019,7,32.922,7,53.001  c0,23.71,19.289,43,43,43c23.71,0,43-19.289,43-43C93,32.923,79.166,16.019,60.53,11.31z M41.47,5.999h17.06v4.854  c-2.758-0.557-5.61-0.853-8.53-0.853s-5.772,0.296-8.53,0.853V5.999z M50,94.001c-22.608,0-41-18.393-41-41  c0-22.607,18.392-41,41-41c22.607,0,41,18.393,41,41C91,75.608,72.607,94.001,50,94.001z"/></svg>